<svg width="24" height="23" viewBox="0 0 24 23" fill="none" xmlns="http://www.w3.org/2000/svg">
<path d="M12.0518 3.88327V3.89082H15.9523V9.06408H17.6429V2.22859V2.20773V2.20023H12.0518V3.87816V3.88327Z" fill="#E87722"/>
<path d="M17.6429 13.8706V13.8631H15.9523V19.0363H12.0518V20.7141V20.7193V20.7269H17.6429V13.8914V13.8706Z" fill="#E87722"/>
<path d="M23.8855 11.2329L19.9175 8.22853C19.8644 8.18738 19.8039 8.1705 19.7459 8.1705C19.5963 8.1705 19.4562 8.28881 19.4562 8.46038V9.7403C19.4562 9.89977 19.3256 10.0301 19.1663 10.0301H17.6424H15.9518H15.0822C14.9229 10.0301 14.7949 10.1581 14.7949 10.3176V12.6095C14.7949 12.769 14.9229 12.897 15.0822 12.897H15.9518H17.6424H19.1663C19.3256 12.897 19.4562 13.0274 19.4562 13.1867V14.4668C19.4562 14.6384 19.5963 14.7566 19.7459 14.7566C19.8039 14.7566 19.8644 14.7398 19.9175 14.6986L23.8855 11.6942C24.0376 11.5783 24.0376 11.3489 23.8855 11.2329Z" fill="#E87722"/>
<path d="M9.59306 0C9.47953 0.00234375 9.36122 0.0170156 9.24276 0.0507187L1.79681 2.20022L1.31377 2.34028L0.743953 2.50453C0.301969 2.6325 0 3.03591 0 3.49716V19.4301C0 19.8913 0.301969 20.2945 0.743953 20.4226L1.31377 20.5869L1.79681 20.727L9.24276 22.8764C9.36122 22.9101 9.47953 22.9272 9.59306 22.9272C10.262 22.9272 10.844 22.3837 10.844 21.6712V20.727V19.0364V3.89081V2.20022V1.25592C10.844 0.543469 10.262 0 9.59306 0ZM7.47726 12.4647V10.4648C7.47726 10.3321 7.58367 10.2283 7.71403 10.2283H8.499C8.6294 10.2283 8.73319 10.3321 8.73319 10.4648V12.4647C8.73319 12.5951 8.6294 12.6989 8.499 12.6989H7.71403C7.58367 12.6989 7.47726 12.5951 7.47726 12.4647Z" fill="#E87722"/>
</svg>
