<svg width="72" height="72" viewBox="0 0 72 72" fill="none" xmlns="http://www.w3.org/2000/svg">
<path d="M36 0C16.128 0 0 16.128 0 36C0 55.872 16.128 72 36 72C55.872 72 72 55.872 72 36C72 16.128 55.872 0 36 0ZM36 10.8C41.976 10.8 46.8 15.624 46.8 21.6C46.8 27.576 41.976 32.4 36 32.4C30.024 32.4 25.2 27.576 25.2 21.6C25.2 15.624 30.024 10.8 36 10.8ZM36 61.92C27 61.92 19.044 57.312 14.4 50.328C14.508 43.164 28.8 39.24 36 39.24C43.164 39.24 57.492 43.164 57.6 50.328C52.956 57.312 45 61.92 36 61.92Z" fill="#E87722"/>
</svg>
